<?xml version="1.0" encoding="iso-8859-1"?>
<!-- Uploaded to: SVG Repo, www.svgrepo.com, Generator: SVG Repo Mixer Tools -->
<svg height="800px" width="800px" version="1.1" id="Layer_1" xmlns="http://www.w3.org/2000/svg" xmlns:xlink="http://www.w3.org/1999/xlink" 
	 viewBox="0 0 512.001 512.001" xml:space="preserve">
<g>
	<path style="fill:#FFDA79;" d="M210.382,187.711v202.551c0,23.292-13.95,44.318-35.41,53.372l-73.196,30.88
		c-51.039,21.532-103.825-26.728-86.943-79.488l65.614-205.044c6.891-21.535,21.194-39.928,40.369-51.912l0,0
		C159.807,113.7,210.382,141.733,210.382,187.711z"/>
	<path style="fill:#FFDA79;" d="M301.623,187.711v202.551c0,23.292,13.95,44.318,35.41,53.372l73.196,30.88
		c51.039,21.532,103.825-26.728,86.943-79.488l-65.614-205.044c-6.891-21.535-21.194-39.928-40.369-51.912l0,0
		C352.199,113.7,301.623,141.733,301.623,187.711z"/>
</g>
<path style="fill:#FF7876;" d="M308.814,159.453l-29.612-20.358V32.203h-46.401v106.892l-29.612,20.358
	c8.703,15.776,7.191,27.578,7.191,51.364l18.964-13.039c16.056-11.039,37.255-11.039,53.312,0l18.964,13.039
	C301.623,187.037,300.118,175.216,308.814,159.453z"/>
<path style="fill:#58595B;" d="M508.22,391.49l-65.614-205.041c-15.28-47.757-66.899-87.545-116.445-60.085
	c-8.013,4.441-14.856,10.205-20.387,16.921l-14.972-10.292V32.203c0-6.408-5.192-11.6-11.6-11.6h-46.401
	c-6.408,0-11.6,5.192-11.6,11.6v100.791l-14.972,10.292c-5.531-6.716-12.374-12.48-20.387-16.921
	c-49.004-27.157-100.945,11.642-116.445,60.083L3.785,391.49c-19.915,62.239,42.361,119.08,102.5,93.711l73.196-30.878
	c25.819-10.892,42.502-36.038,42.502-64.06V216.919l13.936-9.582c12.015-8.259,28.155-8.261,40.169,0.002l13.936,9.582v173.343
	c0,28.021,16.683,53.168,42.502,64.06l73.196,30.878C465.932,510.606,528.109,453.649,508.22,391.49z M198.783,390.264
	c0,18.672-11.116,35.426-28.32,42.684l-73.196,30.878c-41.925,17.685-85.242-21.963-71.383-65.263l65.614-205.044
	c10.969-34.29,47.631-66.519,83.101-46.862c14.203,7.873,23.462,21.521,24.186,41.221v202.385H198.783z M289.994,188.746
	c-21.004-14.432-47.069-14.398-67.98-0.002c-0.221-8.451-0.937-16.264-4.23-25.245l21.592-14.844c3.148-2.164,5.028-5.74,5.028-9.56
	V43.804h23.2v95.292c0,3.82,1.881,7.395,5.028,9.56l21.593,14.844C291.018,172.224,290.224,179.969,289.994,188.746z
	 M414.739,463.825l-73.196-30.878c-17.204-7.257-28.32-24.011-28.32-42.684V187.954c0.708-19.586,9.808-33.33,24.186-41.298
	c35.424-19.635,72.107,12.497,83.101,46.863l65.614,205.042C499.996,441.913,456.613,481.493,414.739,463.825z"/>
</svg>